# xmcd
#
# Track frame offsets: 
#        150
#        13479
#        25582
#        35332
#        47164
#        58485
#        73433
#        84434
#        94464
#        106076
#        118655
#        129832
#        139234
#        150973
#        160713
#        169423
#
# Disc length: 2402 seconds
#
# Revision: 0
# Processed by: cddbd v1.5.2PL0 Copyright (c) Steve Scherf et al.
# Submitted via: ExactAudioCopyFreeDBPlugin 1.0
#
DISCID=da096010
DTITLE=Various Artist - Golden Age of Country ''Crazy Arms'' - CD02
DYEAR=1900
DGENRE=Country
TTITLE0=Hey, Good Lookin - Hank Williams
TTITLE1=Make the World Go Away - Eddy Arnold
TTITLE2=From a Jack to a King - Ned Miller
TTITLE3=The End of the World - Skeeter Davis
TTITLE4=Young Love - Sonny James
TTITLE5=Indian Love Call - Slim Whitman
TTITLE6=Hello Walls - Faron Young
TTITLE7=I've Got a Tiger by the Tail - Buck Owens
TTITLE8=Crazy Arms - Ray Price
TTITLE9=Jackson - Johnny Cash and June Carter
TTITLE10=Singing the Blues - Marty Robbins
TTITLE11=A Little Bitty Tear - Burl Ives
TTITLE12=There Goes My Everything - Jack Greene
TTITLE13=Don't Come Home A'Drinkin - Loretta Lynn
TTITLE14=I Ain't Never - Webb Pierce
TTITLE15=Bye, Bye Love - The Everly Brothers
EXTD=
EXTT0=
EXTT1=
EXTT2=
EXTT3=
EXTT4=
EXTT5=
EXTT6=
EXTT7=
EXTT8=
EXTT9=
EXTT10=
EXTT11=
EXTT12=
EXTT13=
EXTT14=
EXTT15=
PLAYORDER=
